# xmcd CD database file
#
# Track frame offsets:
#	150
#	32145
#	59620
#	87237
#	114252
#	148937
#	165892
#	183912
#	207647
#	235022
#
# Disc length: 3576 seconds
#
# Revision: 0
# Processed by: cddbd v1.5.2PL0 Copyright (c) Steve Scherf et al.
# Submitted via: CDex 1.51
#
DISCID=850df60a
DTITLE=Ray Mantilla and Bobby Watson/ The Jazz Tribe - The Next Step
DYEAR=1999
DGENRE=Jazz
TTITLE0=Mantilla's Jam
TTITLE1=Karita
TTITLE2=River Jordan
TTITLE3=Camino Al Cielo
TTITLE4=Ella Dunham
TTITLE5=Percussion Poutpourri
TTITLE6=Chili Plaza Suite
TTITLE7=Good Bait
TTITLE8=Know One Has To Know
TTITLE9=Los Apolypticanos
EXTD=YEAR: 1999
EXTT0=
EXTT1=
EXTT2=
EXTT3=
EXTT4=
EXTT5=
EXTT6=
EXTT7=
EXTT8=
EXTT9=
PLAYORDER=
